# xmcd
#
# Track frame offsets:
#	150
#	19563
#	39795
#	65662
#	84911
#	96843
#	116630
#	135005
#	149067
#	171971
#	194811
#	206743
#
# Disc length: 3053 seconds
#
# Revision: 1
# Processed by: cddbd v1.5.2PL0 Copyright (c) Steve Scherf et al.
# Submitted via: audiograbber 1.83.01
#
DISCID=a60beb0c
DTITLE=Mike Davis - Big As I Can Be
DYEAR=2006
DGENRE=Country
TTITLE0=All That Remains
TTITLE1=Blue Eyes
TTITLE2=Big As I Can Be
TTITLE3=Silsbee Texas
TTITLE4=I Know I'm Right
TTITLE5=Honky Tonkin' Tonight
TTITLE6=Overflow
TTITLE7=You've Got a Hold of My Heart
TTITLE8=18 Wheels
TTITLE9=In Your Mind
TTITLE10=You're Only Lonely When I'm Gone
TTITLE11=You're a Star
EXTD=
EXTT0=
EXTT1=
EXTT2=
EXTT3=
EXTT4=
EXTT5=
EXTT6=
EXTT7=
EXTT8=
EXTT9=
EXTT10=
EXTT11=
PLAYORDER=
